G04*
G04 #@! TF.GenerationSoftware,Altium Limited,Altium Designer,20.0.2 (26)*
G04*
G04 Layer_Color=8388736*
%FSLAX44Y44*%
%MOMM*%
G71*
G01*
G75*
%ADD22R,1.4032X2.4032*%
%ADD23R,2.9532X1.4032*%
%ADD24R,2.4032X1.4032*%
%ADD25R,1.0032X2.2032*%
%ADD26R,1.0032X1.4032*%
%ADD27R,3.2032X3.3032*%
%ADD28R,0.8032X0.5982*%
%ADD29R,0.9132X1.5752*%
%ADD30C,1.4032*%
%ADD31R,2.7032X2.7032*%
%ADD32O,2.7032X5.2032*%
%ADD33O,2.4532X4.7032*%
%ADD34C,0.9032*%
G36*
X233150Y227330D02*
Y221430D01*
X236750D01*
Y227330D01*
X245850D01*
Y221430D01*
X249450D01*
Y227330D01*
X258550D01*
Y221430D01*
X262150D01*
Y227430D01*
X271250D01*
Y180930D01*
X224050D01*
Y227330D01*
X233150D01*
D02*
G37*
G36*
X410740Y230110D02*
Y236010D01*
X407140D01*
Y230110D01*
X398040D01*
Y236010D01*
X394440D01*
Y230110D01*
X385340D01*
Y236010D01*
X381740D01*
Y230010D01*
X372640D01*
Y276510D01*
X419840D01*
Y230110D01*
X410740D01*
D02*
G37*
D22*
X341930Y207010D02*
D03*
X315930D02*
D03*
X383240Y201930D02*
D03*
X409240D02*
D03*
X383240Y162560D02*
D03*
X409240D02*
D03*
X102000Y210000D02*
D03*
X76000D02*
D03*
X341930Y167640D02*
D03*
X315930D02*
D03*
D23*
X314960Y135730D02*
D03*
Y115730D02*
D03*
D24*
X190500Y251160D02*
D03*
Y277160D02*
D03*
X123190Y53640D02*
D03*
Y27640D02*
D03*
X228600Y251160D02*
D03*
Y277160D02*
D03*
X19050Y189530D02*
D03*
Y163530D02*
D03*
D25*
Y135210D02*
D03*
D26*
Y113710D02*
D03*
D27*
X311150Y264160D02*
D03*
D28*
X281150Y244660D02*
D03*
Y251160D02*
D03*
Y257660D02*
D03*
Y264160D02*
D03*
Y270660D02*
D03*
Y277160D02*
D03*
Y283660D02*
D03*
X341150Y244660D02*
D03*
Y251160D02*
D03*
Y257660D02*
D03*
Y264160D02*
D03*
Y270660D02*
D03*
Y277160D02*
D03*
Y283660D02*
D03*
D29*
X228600Y164070D02*
D03*
X241300D02*
D03*
X254000D02*
D03*
X266700D02*
D03*
X415290Y293370D02*
D03*
X402590D02*
D03*
X389890D02*
D03*
X377190D02*
D03*
D30*
X123250Y94500D02*
D03*
Y145500D02*
D03*
X72750Y120000D02*
D03*
X189230Y28140D02*
D03*
Y53140D02*
D03*
D31*
X313690Y53340D02*
D03*
X262890D02*
D03*
D32*
X140010Y276860D02*
D03*
D33*
X80010D02*
D03*
D34*
X311540Y253365D02*
D03*
X301135Y253175D02*
D03*
X310905Y264478D02*
D03*
X300500Y264287D02*
D03*
X321945Y253365D02*
D03*
X300500Y275400D02*
D03*
X321310Y275590D02*
D03*
X366000Y200000D02*
D03*
X272170Y285830D02*
D03*
X355000Y270000D02*
D03*
X378000Y243000D02*
D03*
X405000D02*
D03*
X396000D02*
D03*
X387000D02*
D03*
X378000Y252000D02*
D03*
X405000D02*
D03*
X396000D02*
D03*
X387000D02*
D03*
X378000Y261000D02*
D03*
X405000D02*
D03*
X396000D02*
D03*
X387000D02*
D03*
X414020Y243000D02*
D03*
Y270000D02*
D03*
X387000Y270000D02*
D03*
X396000D02*
D03*
X405000D02*
D03*
X378000D02*
D03*
X414020Y261000D02*
D03*
Y252000D02*
D03*
X310905Y275590D02*
D03*
X321310Y264478D02*
D03*
X256540Y264160D02*
D03*
X177800Y179070D02*
D03*
X191770Y187960D02*
D03*
X300990Y226060D02*
D03*
X262070Y244660D02*
D03*
X280670Y163830D02*
D03*
X353060Y281940D02*
D03*
X341630Y223520D02*
D03*
X19050Y209550D02*
D03*
M02*
