G04*
G04 #@! TF.GenerationSoftware,Altium Limited,Altium Designer,20.0.2 (26)*
G04*
G04 Layer_Color=8421504*
%FSLAX44Y44*%
%MOMM*%
G71*
G01*
G75*
%ADD15R,2.2000X1.2000*%
%ADD16R,1.2000X2.2000*%
%ADD17R,2.7500X1.2000*%
%ADD18R,0.8000X2.0000*%
%ADD19R,0.8000X1.2000*%
%ADD20R,3.0000X3.1000*%
%ADD21R,0.6000X0.3950*%
G36*
X231410Y169560D02*
Y158840D01*
X225790D01*
Y169560D01*
X231410D01*
D02*
G37*
G36*
X244110D02*
Y158840D01*
X238490D01*
Y169560D01*
X244110D01*
D02*
G37*
G36*
X235690Y197740D02*
Y184800D01*
X228230D01*
Y197740D01*
X235690D01*
D02*
G37*
G36*
X246150D02*
Y184800D01*
X238690D01*
Y197740D01*
X246150D01*
D02*
G37*
G36*
X256810Y169560D02*
Y158840D01*
X251190D01*
Y169560D01*
X256810D01*
D02*
G37*
G36*
X269510D02*
Y158840D01*
X263890D01*
Y169560D01*
X269510D01*
D02*
G37*
G36*
X256610Y197740D02*
Y184800D01*
X249150D01*
Y197740D01*
X256610D01*
D02*
G37*
G36*
X267070D02*
Y184800D01*
X259610D01*
Y197740D01*
X267070D01*
D02*
G37*
G36*
X235690Y214180D02*
Y201240D01*
X228230D01*
Y214180D01*
X235690D01*
D02*
G37*
G36*
X246150D02*
Y201240D01*
X238690D01*
Y214180D01*
X246150D01*
D02*
G37*
G36*
X231140Y224700D02*
Y217040D01*
X226060D01*
Y224700D01*
X231140D01*
D02*
G37*
G36*
X243840D02*
Y217040D01*
X238760D01*
Y224700D01*
X243840D01*
D02*
G37*
G36*
X256610Y214180D02*
Y201240D01*
X249150D01*
Y214180D01*
X256610D01*
D02*
G37*
G36*
X267070D02*
Y201240D01*
X259610D01*
Y214180D01*
X267070D01*
D02*
G37*
G36*
X256540Y224700D02*
Y217040D01*
X251460D01*
Y224700D01*
X256540D01*
D02*
G37*
G36*
X269240D02*
Y217040D01*
X264160D01*
Y224700D01*
X269240D01*
D02*
G37*
G36*
X374650Y232740D02*
Y240400D01*
X379730D01*
Y232740D01*
X374650D01*
D02*
G37*
G36*
X387350D02*
Y240400D01*
X392430D01*
Y232740D01*
X387350D01*
D02*
G37*
G36*
X376820Y243260D02*
Y256200D01*
X384280D01*
Y243260D01*
X376820D01*
D02*
G37*
G36*
X387280D02*
Y256200D01*
X394740D01*
Y243260D01*
X387280D01*
D02*
G37*
G36*
X400050Y232740D02*
Y240400D01*
X405130D01*
Y232740D01*
X400050D01*
D02*
G37*
G36*
X412750D02*
Y240400D01*
X417830D01*
Y232740D01*
X412750D01*
D02*
G37*
G36*
X397740Y243260D02*
Y256200D01*
X405200D01*
Y243260D01*
X397740D01*
D02*
G37*
G36*
X408200D02*
Y256200D01*
X415660D01*
Y243260D01*
X408200D01*
D02*
G37*
G36*
X376820Y259700D02*
Y272640D01*
X384280D01*
Y259700D01*
X376820D01*
D02*
G37*
G36*
X387280D02*
Y272640D01*
X394740D01*
Y259700D01*
X387280D01*
D02*
G37*
G36*
X374380Y287880D02*
Y298600D01*
X380000D01*
Y287880D01*
X374380D01*
D02*
G37*
G36*
X387080D02*
Y298600D01*
X392700D01*
Y287880D01*
X387080D01*
D02*
G37*
G36*
X397740Y259700D02*
Y272640D01*
X405200D01*
Y259700D01*
X397740D01*
D02*
G37*
G36*
X408200D02*
Y272640D01*
X415660D01*
Y259700D01*
X408200D01*
D02*
G37*
G36*
X399780Y287880D02*
Y298600D01*
X405400D01*
Y287880D01*
X399780D01*
D02*
G37*
G36*
X412480D02*
Y298600D01*
X418100D01*
Y287880D01*
X412480D01*
D02*
G37*
D15*
X33900Y163400D02*
D03*
Y189400D02*
D03*
X190500Y251160D02*
D03*
Y277160D02*
D03*
X109000Y54200D02*
D03*
Y28200D02*
D03*
X228600Y251160D02*
D03*
Y277160D02*
D03*
D16*
X341930Y207010D02*
D03*
X315930D02*
D03*
X383240Y201930D02*
D03*
X409240D02*
D03*
X383240Y162560D02*
D03*
X409240D02*
D03*
X102000Y210000D02*
D03*
X76000D02*
D03*
X341930Y167640D02*
D03*
X315930D02*
D03*
D17*
X336600Y134200D02*
D03*
Y114200D02*
D03*
D18*
X33600Y133350D02*
D03*
D19*
Y111850D02*
D03*
D20*
X311150Y264160D02*
D03*
D21*
X281150Y244660D02*
D03*
Y251160D02*
D03*
Y257660D02*
D03*
Y264160D02*
D03*
Y270660D02*
D03*
Y277160D02*
D03*
Y283660D02*
D03*
X341150Y244660D02*
D03*
Y251160D02*
D03*
Y257660D02*
D03*
Y264160D02*
D03*
Y270660D02*
D03*
Y277160D02*
D03*
Y283660D02*
D03*
M02*
