G04*
G04 #@! TF.GenerationSoftware,Altium Limited,Altium Designer,20.0.2 (26)*
G04*
G04 Layer_Color=65535*
%FSLAX44Y44*%
%MOMM*%
G71*
G01*
G75*
%ADD10C,0.3000*%
%ADD11C,0.2000*%
%ADD12C,0.1000*%
%ADD13C,0.2540*%
%ADD14C,0.1270*%
D10*
X161510Y276860D02*
G03*
X161510Y276860I-1500J0D01*
G01*
D11*
X226425Y150495D02*
G03*
X226425Y150495I-1000J0D01*
G01*
X419465Y306945D02*
G03*
X419465Y306945I-1000J0D01*
G01*
X10050Y103460D02*
X28050D01*
Y147910D01*
X10050D02*
X28050D01*
X10050Y103460D02*
Y147910D01*
D12*
X64350Y155100D02*
X133750D01*
Y86300D02*
Y155100D01*
X133650Y86200D02*
X133750Y86300D01*
X64250Y86200D02*
X133650D01*
X64250D02*
X64350Y86300D01*
Y155100D01*
X298960Y143730D02*
X330960D01*
X298960Y107730D02*
Y143730D01*
Y107730D02*
X330960D01*
Y143730D01*
X230090Y1340D02*
X340090D01*
X230090D02*
Y105340D01*
X340090D01*
Y1340D02*
Y105340D01*
D13*
X308930Y191010D02*
X348930D01*
X308930Y223010D02*
X348930D01*
X376240Y217930D02*
X416240D01*
X376240Y185930D02*
X416240D01*
X174500Y244160D02*
Y284160D01*
X206500Y244160D02*
Y284160D01*
X289350Y292160D02*
X289450D01*
X139190Y20640D02*
Y60640D01*
X107190Y20640D02*
Y60640D01*
X376240Y178560D02*
X416240D01*
X376240Y146560D02*
X416240D01*
X69000Y194000D02*
X109000D01*
X69000Y226000D02*
X109000D01*
X308930Y151640D02*
X348930D01*
X308930Y183640D02*
X348930D01*
X212600Y244160D02*
Y284160D01*
X244600Y244160D02*
Y284160D01*
X35050Y156530D02*
Y196530D01*
X3050Y156530D02*
Y196530D01*
X66392Y163174D02*
Y178409D01*
X74010D01*
X76549Y175870D01*
Y170791D01*
X74010Y168252D01*
X66392D01*
X71470D02*
X76549Y163174D01*
X89245D02*
Y178409D01*
X81627Y170791D01*
X91784D01*
X190497Y305812D02*
X187957Y308351D01*
X182879D01*
X180340Y305812D01*
Y295655D01*
X182879Y293116D01*
X187957D01*
X190497Y295655D01*
X195575Y293116D02*
X200653D01*
X198114D01*
Y308351D01*
X195575Y305812D01*
X279654Y316225D02*
Y303529D01*
X282193Y300990D01*
X287271D01*
X289811Y303529D01*
Y316225D01*
X294889Y300990D02*
X299967D01*
X297428D01*
Y316225D01*
X294889Y313686D01*
X4318Y205486D02*
Y220721D01*
X11935D01*
X14475Y218182D01*
Y213104D01*
X11935Y210564D01*
X4318D01*
X9396D02*
X14475Y205486D01*
X29710Y220721D02*
X19553D01*
Y213104D01*
X24631Y215643D01*
X27171D01*
X29710Y213104D01*
Y208025D01*
X27171Y205486D01*
X22092D01*
X19553Y208025D01*
X99060Y26670D02*
X83825D01*
Y34288D01*
X86364Y36827D01*
X91442D01*
X93982Y34288D01*
Y26670D01*
Y31748D02*
X99060Y36827D01*
X86364Y41905D02*
X83825Y44444D01*
Y49523D01*
X86364Y52062D01*
X88903D01*
X91442Y49523D01*
Y46983D01*
Y49523D01*
X93982Y52062D01*
X96521D01*
X99060Y49523D01*
Y44444D01*
X96521Y41905D01*
X424180Y175260D02*
X439415D01*
Y167642D01*
X436876Y165103D01*
X431797D01*
X429258Y167642D01*
Y175260D01*
Y170182D02*
X424180Y165103D01*
Y149868D02*
Y160025D01*
X434337Y149868D01*
X436876D01*
X439415Y152407D01*
Y157486D01*
X436876Y160025D01*
X119100Y219370D02*
X134335D01*
Y211752D01*
X131796Y209213D01*
X126718D01*
X124178Y211752D01*
Y219370D01*
Y214292D02*
X119100Y209213D01*
Y204135D02*
Y199057D01*
Y201596D01*
X134335D01*
X131796Y204135D01*
X204469Y213603D02*
X214626D01*
X217165Y216143D01*
Y221221D01*
X214626Y223760D01*
X204469D01*
X201930Y221221D01*
Y216143D01*
X207008Y218682D02*
X201930Y213603D01*
Y216143D02*
X204469Y213603D01*
X201930Y198368D02*
Y208525D01*
X212087Y198368D01*
X214626D01*
X217165Y200907D01*
Y205986D01*
X214626Y208525D01*
X422907Y318769D02*
Y328926D01*
X420368Y331465D01*
X415289D01*
X412750Y328926D01*
Y318769D01*
X415289Y316230D01*
X420368D01*
X417828Y321308D02*
X422907Y316230D01*
X420368D02*
X422907Y318769D01*
X427985Y316230D02*
X433063D01*
X430524D01*
Y331465D01*
X427985Y328926D01*
X346710Y31750D02*
X361945D01*
Y24132D01*
X359406Y21593D01*
X354328D01*
X351788Y24132D01*
Y31750D01*
X346710Y6358D02*
Y16515D01*
X356867Y6358D01*
X359406D01*
X361945Y8897D01*
Y13976D01*
X359406Y16515D01*
X2794Y332232D02*
Y347467D01*
X10411D01*
X12951Y344928D01*
Y339850D01*
X10411Y337310D01*
X2794D01*
X18029Y332232D02*
X23107D01*
X20568D01*
Y347467D01*
X18029Y344928D01*
X336550Y126995D02*
Y111760D01*
X346707D01*
X351785D02*
X356863D01*
X354324D01*
Y126995D01*
X351785Y124456D01*
X6350Y95245D02*
Y80010D01*
X13967D01*
X16507Y82549D01*
Y92706D01*
X13967Y95245D01*
X6350D01*
X21585Y80010D02*
X26663D01*
X24124D01*
Y95245D01*
X21585Y92706D01*
X204467Y91436D02*
X201928Y93975D01*
X196849D01*
X194310Y91436D01*
Y81279D01*
X196849Y78740D01*
X201928D01*
X204467Y81279D01*
X219702Y93975D02*
X214623Y91436D01*
X209545Y86357D01*
Y81279D01*
X212084Y78740D01*
X217163D01*
X219702Y81279D01*
Y83818D01*
X217163Y86357D01*
X209545D01*
X436876Y205743D02*
X439415Y208283D01*
Y213361D01*
X436876Y215900D01*
X426719D01*
X424180Y213361D01*
Y208283D01*
X426719Y205743D01*
X439415Y190508D02*
Y200665D01*
X431797D01*
X434337Y195587D01*
Y193047D01*
X431797Y190508D01*
X426719D01*
X424180Y193047D01*
Y198126D01*
X426719Y200665D01*
X285754Y207007D02*
X283215Y204468D01*
Y199389D01*
X285754Y196850D01*
X295911D01*
X298450Y199389D01*
Y204468D01*
X295911Y207007D01*
X298450Y219703D02*
X283215D01*
X290833Y212085D01*
Y222242D01*
X285754Y167637D02*
X283215Y165098D01*
Y160019D01*
X285754Y157480D01*
X295911D01*
X298450Y160019D01*
Y165098D01*
X295911Y167637D01*
X285754Y172715D02*
X283215Y175254D01*
Y180333D01*
X285754Y182872D01*
X288293D01*
X290833Y180333D01*
Y177793D01*
Y180333D01*
X293372Y182872D01*
X295911D01*
X298450Y180333D01*
Y175254D01*
X295911Y172715D01*
X227962Y305812D02*
X225422Y308351D01*
X220344D01*
X217805Y305812D01*
Y295655D01*
X220344Y293116D01*
X225422D01*
X227962Y295655D01*
X243197Y293116D02*
X233040D01*
X243197Y303273D01*
Y305812D01*
X240658Y308351D01*
X235579D01*
X233040Y305812D01*
D14*
X3010Y231860D02*
Y321860D01*
X148010D01*
Y303860D02*
Y321860D01*
X3010Y231860D02*
X148010D01*
Y249860D01*
X272650Y174130D02*
Y178730D01*
X222650Y174130D02*
Y178730D01*
X371240Y278710D02*
Y283310D01*
X421240Y278710D02*
Y283310D01*
M02*
