M48
;Layer_Color=9474304
;FILE_FORMAT=4:4
METRIC,LZ
;TYPE=PLATED
T1F00S00C0.3000
T2F00S00C0.5000
T3F00S00C0.5000
%
T01
X001778Y0017907
X0019177Y0018796
X0028067Y0016383
X0030099Y0022606
X00301135Y00253175
X0031154Y00253365
X00321945
X0032131Y00264478
X00310905
X003005Y00264287
X003005Y002754
X00310905Y0027559
X0032131
X0035306Y0028194
X00355Y0027
X00378
Y00261
Y00252
Y00243
X00387
X00396
X00405
Y00252
X00396
X00387
Y00261
X00396
X00405
Y0027
X00396
X00387
X0041402Y0027
Y00261
Y00252
Y00243
X00366Y002
X0034163Y0022352
X0026207Y0024466
X0025654Y0026416
X0027217Y0028583
X0001905Y0020955
T02
X0018923Y0002814
Y0005314
T03
X0007275Y0012
X0012325Y000945
Y001455
M30
