G04*
G04 #@! TF.GenerationSoftware,Altium Limited,Altium Designer,20.0.2 (26)*
G04*
G04 Layer_Physical_Order=1*
G04 Layer_Color=255*
%FSLAX44Y44*%
%MOMM*%
G71*
G01*
G75*
%ADD15R,2.2000X1.2000*%
%ADD16R,1.2000X2.2000*%
%ADD17R,2.7500X1.2000*%
%ADD18R,0.8000X2.0000*%
%ADD19R,0.8000X1.2000*%
%ADD20R,3.0000X3.1000*%
%ADD21R,0.6000X0.3950*%
%ADD35R,0.7100X1.3720*%
%ADD36C,1.0000*%
%ADD37C,0.5000*%
%ADD38C,0.3950*%
%ADD39C,1.2000*%
%ADD40R,2.5000X2.5000*%
%ADD41O,2.5000X5.0000*%
%ADD42O,2.2500X4.5000*%
%ADD43C,0.7000*%
G36*
X452120Y350750D02*
Y260688D01*
X452000Y260590D01*
X422840D01*
Y273190D01*
X422643Y274181D01*
X422081Y275021D01*
X421430Y275457D01*
Y275510D01*
X421233Y276501D01*
X420671Y277341D01*
X419831Y277903D01*
X418840Y278100D01*
X373640D01*
X372904Y277953D01*
X372022Y278426D01*
X371633Y278752D01*
Y283970D01*
X383280D01*
Y302770D01*
X371100D01*
Y297973D01*
X369570D01*
X367808Y297623D01*
X366315Y296625D01*
X366315Y296625D01*
X363775Y294085D01*
X362777Y292592D01*
X362426Y290830D01*
X362427Y290830D01*
Y273229D01*
X361735Y272682D01*
X360288Y272958D01*
X359355Y274355D01*
X357357Y275690D01*
X356976Y275765D01*
X356708Y277113D01*
X357415Y277585D01*
X358750Y279583D01*
X359218Y281940D01*
X358750Y284297D01*
X357415Y286295D01*
X355417Y287630D01*
X353060Y288098D01*
X350703Y287630D01*
X348705Y286295D01*
X347960Y285179D01*
X346690Y285564D01*
Y288175D01*
X341595D01*
X341150Y288263D01*
X330150D01*
X330150Y288263D01*
X328388Y287913D01*
X326895Y286915D01*
X322180Y282200D01*
X293610D01*
Y262264D01*
X286690D01*
Y275175D01*
X275610D01*
Y268773D01*
X266426D01*
X264457Y270090D01*
X262100Y270558D01*
X259743Y270090D01*
X257745Y268755D01*
X256411Y266757D01*
X255942Y264400D01*
X256411Y262043D01*
X257745Y260045D01*
X259743Y258710D01*
X262100Y258242D01*
X264457Y258710D01*
X265738Y259567D01*
X275610D01*
Y256230D01*
Y255480D01*
X252780D01*
Y256230D01*
Y260350D01*
X252583Y261341D01*
X252021Y262181D01*
X251181Y262743D01*
X250190Y262940D01*
X158750D01*
X157759Y262743D01*
X156919Y262181D01*
X156357Y261341D01*
X156160Y260350D01*
Y256548D01*
X156147Y256538D01*
X155089Y255480D01*
X153757D01*
X152996Y256750D01*
X153972Y258577D01*
X154832Y261412D01*
X155123Y264360D01*
Y289360D01*
X154832Y292308D01*
X153972Y295143D01*
X152576Y297756D01*
X151506Y299060D01*
X140908Y288462D01*
X140010Y289360D01*
X139112Y288462D01*
X128514Y299060D01*
X127444Y297756D01*
X126048Y295143D01*
X125188Y292308D01*
X124897Y289360D01*
Y264360D01*
X125188Y261412D01*
X126048Y258577D01*
X127024Y256750D01*
X126263Y255480D01*
X104190D01*
Y290830D01*
Y307281D01*
X103993Y308272D01*
X103880Y308441D01*
Y309480D01*
X102881D01*
X102591Y309674D01*
X101600Y309871D01*
X62000D01*
X61009Y309674D01*
X60169Y309112D01*
X59607Y308272D01*
X59410Y307281D01*
Y243000D01*
X59486Y242620D01*
X59526Y242234D01*
X59584Y242128D01*
X59607Y242009D01*
X59823Y241686D01*
X60008Y241346D01*
X60102Y241269D01*
X60169Y241169D01*
X60491Y240953D01*
X60792Y240709D01*
X60908Y240675D01*
X61009Y240607D01*
X61389Y240532D01*
X61761Y240421D01*
X82500Y238499D01*
D01*
D01*
X82500Y197080D01*
D01*
Y196330D01*
X47440D01*
Y197080D01*
Y197940D01*
X39839D01*
Y206119D01*
X40390Y206943D01*
X40858Y209300D01*
X40390Y211657D01*
X39055Y213655D01*
X37057Y214989D01*
X34700Y215458D01*
X32343Y214989D01*
X30345Y213655D01*
X29011Y211657D01*
X28542Y209300D01*
X29011Y206943D01*
X29561Y206119D01*
Y197940D01*
X20360D01*
Y197080D01*
Y196330D01*
X0D01*
Y350000D01*
X720D01*
Y350750D01*
X452120Y350750D01*
D02*
G37*
G36*
X418840Y273190D02*
X420250D01*
Y258000D01*
X452000D01*
Y129730D01*
X449460Y127190D01*
X218320D01*
Y173940D01*
X259535D01*
X260610Y173470D01*
X260610Y172670D01*
Y154670D01*
X272790D01*
Y159227D01*
X276688D01*
X278313Y158140D01*
X280670Y157672D01*
X283027Y158140D01*
X285025Y159475D01*
X286360Y161473D01*
X286828Y163830D01*
X286360Y166187D01*
X285025Y168185D01*
X283027Y169520D01*
X280670Y169988D01*
X278313Y169520D01*
X276688Y168433D01*
X272790D01*
X272790Y173470D01*
X273865Y173940D01*
X275590D01*
X276581Y174137D01*
X276645Y174180D01*
X285846D01*
X286745Y172835D01*
X295195Y164385D01*
X295195Y164385D01*
X296688Y163387D01*
X298450Y163037D01*
X307390D01*
Y154100D01*
X324470D01*
Y174180D01*
X333390D01*
Y154100D01*
X350470D01*
Y174180D01*
X353627D01*
X353732Y173653D01*
X354730Y172160D01*
X367585Y159305D01*
X367585Y159305D01*
X369078Y158307D01*
X370840Y157956D01*
X370840Y157957D01*
X374700D01*
Y149020D01*
X391780D01*
Y176100D01*
X374700D01*
Y167163D01*
X372747D01*
X366904Y173007D01*
X367390Y174180D01*
X369450D01*
Y195041D01*
X369982Y195397D01*
X374700D01*
Y188390D01*
X391780D01*
Y215470D01*
X374700D01*
Y204604D01*
X369982D01*
X369450Y204959D01*
Y266605D01*
X370285Y267440D01*
X371283Y268933D01*
X371633Y270695D01*
X371633Y270695D01*
Y273190D01*
X373640D01*
Y275510D01*
X418840D01*
Y273190D01*
D02*
G37*
G36*
X101600Y290830D02*
Y251000D01*
X133281Y250903D01*
X134227Y250398D01*
X137062Y249538D01*
X140010Y249247D01*
X142958Y249538D01*
X145793Y250398D01*
X146662Y250862D01*
X158750Y250825D01*
Y260350D01*
X250190D01*
Y237490D01*
X275590D01*
Y176530D01*
X190500D01*
X130601Y176891D01*
X130290Y178457D01*
X128955Y180455D01*
X126957Y181790D01*
X124600Y182258D01*
X122243Y181790D01*
X120245Y180455D01*
X118911Y178457D01*
X118613Y176963D01*
X85090Y177165D01*
X85090Y240860D01*
X62000Y243000D01*
Y307281D01*
X101600D01*
Y290830D01*
D02*
G37*
G36*
X3000Y168000D02*
X20360D01*
Y154860D01*
X28461D01*
Y145890D01*
X27060D01*
Y120810D01*
X40140D01*
Y145890D01*
X38739D01*
Y154860D01*
X47440D01*
Y168000D01*
X119997D01*
Y153396D01*
X118943Y152960D01*
X117159Y151591D01*
X115790Y149807D01*
X114930Y147729D01*
X114879Y147343D01*
X104332Y136796D01*
X103124Y135221D01*
X102364Y133387D01*
X102105Y131419D01*
Y62740D01*
X95460D01*
Y45660D01*
X122540D01*
Y62740D01*
X117315D01*
Y86854D01*
X118454Y87416D01*
X118943Y87040D01*
X121021Y86180D01*
X123250Y85886D01*
X125479Y86180D01*
X127557Y87040D01*
X129341Y88409D01*
X130710Y90193D01*
X131570Y92271D01*
X131864Y94500D01*
X131570Y96729D01*
X130710Y98807D01*
X129341Y100591D01*
X127557Y101960D01*
X125479Y102820D01*
X123250Y103114D01*
X121021Y102820D01*
X118943Y101960D01*
X118454Y101584D01*
X117315Y102146D01*
Y128269D01*
X126754Y137708D01*
X127557Y138040D01*
X129341Y139409D01*
X130710Y141193D01*
X131570Y143271D01*
X131864Y145500D01*
X131570Y147729D01*
X130710Y149807D01*
X129341Y151591D01*
X129203Y151696D01*
Y168000D01*
X203000D01*
Y125000D01*
X204000Y124000D01*
X452000D01*
Y0D01*
X0D01*
Y169341D01*
X1173Y169827D01*
X3000Y168000D01*
D02*
G37*
%LPC*%
G36*
X140010Y304473D02*
X137062Y304182D01*
X134227Y303322D01*
X131614Y301926D01*
X130310Y300856D01*
X140010Y291156D01*
X149710Y300856D01*
X148406Y301926D01*
X145793Y303322D01*
X142958Y304182D01*
X140010Y304473D01*
D02*
G37*
G36*
X272170Y291988D02*
X269813Y291520D01*
X267815Y290185D01*
X266480Y288187D01*
X266012Y285830D01*
X266480Y283473D01*
X267815Y281475D01*
X269813Y280140D01*
X272170Y279672D01*
X274362Y280108D01*
X274857Y279896D01*
X275610Y279337D01*
Y279145D01*
X277895D01*
X278340Y279056D01*
X278340Y279057D01*
X281150D01*
X281595Y279145D01*
X286690D01*
Y288175D01*
X281595D01*
X281150Y288263D01*
X280247D01*
X279425Y289085D01*
X277932Y290083D01*
X276170Y290434D01*
X276170Y290434D01*
X276152D01*
X274527Y291520D01*
X272170Y291988D01*
D02*
G37*
G36*
X80010Y302019D02*
X76410Y301545D01*
X73056Y300156D01*
X71375Y298866D01*
X80010Y290231D01*
X88645Y298866D01*
X86965Y300156D01*
X83610Y301545D01*
X80010Y302019D01*
D02*
G37*
G36*
X69254Y296745D02*
X67965Y295065D01*
X66575Y291710D01*
X66101Y288110D01*
Y265610D01*
X66575Y262010D01*
X67965Y258655D01*
X69254Y256975D01*
X78949Y266671D01*
X80010Y265610D01*
X81071Y266671D01*
X90766Y256975D01*
X92056Y258655D01*
X93445Y262010D01*
X93919Y265610D01*
Y288110D01*
X93445Y291710D01*
X92056Y295065D01*
X90766Y296745D01*
X81071Y287049D01*
X80010Y288110D01*
X78949Y287049D01*
X69254Y296745D01*
D02*
G37*
G36*
X80010Y263489D02*
X71375Y254854D01*
X73056Y253564D01*
X76410Y252175D01*
X80010Y251701D01*
X83610Y252175D01*
X86965Y253564D01*
X88645Y254854D01*
X80010Y263489D01*
D02*
G37*
G36*
X110540Y223540D02*
X93460D01*
Y196460D01*
X110540D01*
Y202496D01*
X195618D01*
X197243Y201410D01*
X199600Y200942D01*
X201957Y201410D01*
X203955Y202745D01*
X205290Y204743D01*
X205758Y207100D01*
X205290Y209457D01*
X203955Y211455D01*
X201957Y212789D01*
X199600Y213258D01*
X197243Y212789D01*
X195618Y211703D01*
X110540D01*
Y223540D01*
D02*
G37*
G36*
X72750Y128614D02*
X70521Y128320D01*
X68443Y127460D01*
X66659Y126091D01*
X65290Y124307D01*
X64430Y122229D01*
X64136Y120000D01*
X64430Y117771D01*
X65290Y115693D01*
X66659Y113909D01*
X68443Y112540D01*
X70521Y111680D01*
X72750Y111386D01*
X74979Y111680D01*
X77057Y112540D01*
X78841Y113909D01*
X80210Y115693D01*
X81070Y117771D01*
X81364Y120000D01*
X81070Y122229D01*
X80210Y124307D01*
X78841Y126091D01*
X77057Y127460D01*
X74979Y128320D01*
X72750Y128614D01*
D02*
G37*
G36*
X383844Y67440D02*
X357356D01*
X370600Y54196D01*
X383844Y67440D01*
D02*
G37*
G36*
X189230Y61754D02*
X187001Y61460D01*
X184923Y60600D01*
X183139Y59231D01*
X181770Y57447D01*
X180910Y55369D01*
X180616Y53140D01*
X180910Y50911D01*
X181770Y48833D01*
X183139Y47049D01*
X184923Y45680D01*
X187001Y44820D01*
X189230Y44526D01*
X191459Y44820D01*
X193537Y45680D01*
X195321Y47049D01*
X196690Y48833D01*
X197550Y50911D01*
X197844Y53140D01*
X197550Y55369D01*
X196690Y57447D01*
X195321Y59231D01*
X193537Y60600D01*
X191459Y61460D01*
X189230Y61754D01*
D02*
G37*
G36*
X385640Y65644D02*
X372396Y52400D01*
X385640Y39156D01*
Y65644D01*
D02*
G37*
G36*
X355560Y65644D02*
Y39156D01*
X368804Y52400D01*
X355560Y65644D01*
D02*
G37*
G36*
X370600Y50604D02*
X357356Y37360D01*
X383844D01*
X370600Y50604D01*
D02*
G37*
G36*
X334840Y67440D02*
X304760D01*
Y37360D01*
X334840D01*
Y67440D01*
D02*
G37*
G36*
X189230Y36754D02*
X187001Y36460D01*
X184923Y35600D01*
X184155Y35011D01*
X189230Y29936D01*
X194305Y35011D01*
X193537Y35600D01*
X191459Y36460D01*
X189230Y36754D01*
D02*
G37*
G36*
X196101Y33215D02*
X191026Y28140D01*
X196101Y23066D01*
X196690Y23833D01*
X197550Y25911D01*
X197844Y28140D01*
X197550Y30369D01*
X196690Y32447D01*
X196101Y33215D01*
D02*
G37*
G36*
X182359D02*
X181770Y32447D01*
X180910Y30369D01*
X180616Y28140D01*
X180910Y25911D01*
X181770Y23833D01*
X182359Y23066D01*
X187434Y28140D01*
X182359Y33215D01*
D02*
G37*
G36*
X189230Y26344D02*
X184155Y21269D01*
X184923Y20680D01*
X187001Y19820D01*
X189230Y19526D01*
X191459Y19820D01*
X193537Y20680D01*
X194305Y21270D01*
X189230Y26344D01*
D02*
G37*
%LPD*%
D15*
X33900Y163400D02*
D03*
Y189400D02*
D03*
X190500Y251160D02*
D03*
Y277160D02*
D03*
X109000Y54200D02*
D03*
Y28200D02*
D03*
X228600Y251160D02*
D03*
Y277160D02*
D03*
D16*
X341930Y207010D02*
D03*
X315930D02*
D03*
X383240Y201930D02*
D03*
X409240D02*
D03*
X383240Y162560D02*
D03*
X409240D02*
D03*
X102000Y210000D02*
D03*
X76000D02*
D03*
X341930Y167640D02*
D03*
X315930D02*
D03*
D17*
X336600Y134200D02*
D03*
Y114200D02*
D03*
D18*
X33600Y133350D02*
D03*
D19*
Y111850D02*
D03*
D20*
X311150Y264160D02*
D03*
D21*
X281150Y244660D02*
D03*
Y251160D02*
D03*
Y257660D02*
D03*
Y264160D02*
D03*
Y270660D02*
D03*
Y277160D02*
D03*
Y283660D02*
D03*
X341150Y244660D02*
D03*
Y251160D02*
D03*
Y257660D02*
D03*
Y264160D02*
D03*
Y270660D02*
D03*
Y277160D02*
D03*
Y283660D02*
D03*
D35*
X266700Y219470D02*
D03*
X254000D02*
D03*
X241300D02*
D03*
X228600D02*
D03*
Y164070D02*
D03*
X241300D02*
D03*
X254000D02*
D03*
X266700D02*
D03*
X377190Y237970D02*
D03*
X389890D02*
D03*
X402590D02*
D03*
X415290D02*
D03*
Y293370D02*
D03*
X402590D02*
D03*
X389890D02*
D03*
X377190D02*
D03*
D36*
X370300Y51100D02*
Y106000D01*
X53160Y27640D02*
X123190D01*
X33600Y47200D02*
X53160Y27640D01*
X33600Y47200D02*
Y111850D01*
X338205Y308205D02*
X383428D01*
X322100Y292100D02*
X338205Y308205D01*
X300990Y292100D02*
X322100D01*
X383428Y308205D02*
X388440Y303193D01*
X362100Y114200D02*
X370300Y106000D01*
X336600Y114200D02*
X362100D01*
X347340Y28140D02*
X370300Y51100D01*
X189230Y28140D02*
X347340D01*
X123040Y144749D02*
Y146150D01*
X109710Y53715D02*
Y131419D01*
X241300Y162560D02*
X250190D01*
X109710Y131419D02*
X123040Y144749D01*
X123190Y27640D02*
X123690Y28140D01*
X256240Y277160D02*
X256240Y277160D01*
X228600Y277160D02*
X256240D01*
X341630Y207310D02*
X341930Y207010D01*
X341630Y207310D02*
Y223520D01*
X341930Y167640D02*
Y207010D01*
X228600Y219470D02*
Y251160D01*
X254000Y219470D02*
X266700D01*
X241300D02*
X254000D01*
X228600D02*
X241300D01*
X230050Y162560D02*
X241300D01*
X228600Y164010D02*
X230050Y162560D01*
X228600Y164010D02*
Y164070D01*
X273967Y135730D02*
X322580D01*
X250190Y159507D02*
X273967Y135730D01*
X250190Y159507D02*
Y162560D01*
X322580Y135730D02*
X387410D01*
X409240Y157560D01*
Y162560D01*
Y201930D01*
X415290Y237560D02*
Y237970D01*
X409240Y231510D02*
X415290Y237560D01*
X409240Y201930D02*
Y231510D01*
X402590Y237970D02*
X415290D01*
X389890D02*
X402590D01*
X377190D02*
X389890D01*
X402590Y293370D02*
X415290D01*
X389890D02*
X402590D01*
X388440Y294820D02*
X389890Y293370D01*
X388440Y294820D02*
Y303193D01*
X161525Y251160D02*
X190500D01*
X154685Y244320D02*
X161525Y251160D01*
X101300Y244320D02*
X154685D01*
X80010Y265610D02*
X101300Y244320D01*
X80010Y265610D02*
Y276860D01*
X123690Y28140D02*
X189230D01*
X190500Y251160D02*
X228600D01*
X190500Y277160D02*
X228600D01*
X140010Y276860D02*
X140160Y277010D01*
X190350D01*
X190500Y277160D01*
D37*
X33600Y163100D02*
X33900Y163400D01*
X33600Y133350D02*
Y163100D01*
X33900Y189400D02*
X34700Y190200D01*
Y209300D01*
X54610Y224790D02*
Y309491D01*
X64770Y214630D02*
X75900D01*
X54610Y224790D02*
X64770Y214630D01*
X256240Y277160D02*
X263190D01*
X140010Y276860D02*
Y294330D01*
X54610Y309491D02*
X57539Y312420D01*
X121920D01*
X140010Y294330D01*
D38*
X330150Y283660D02*
X341150D01*
X311150Y264660D02*
X330150Y283660D01*
X311150Y264160D02*
Y264660D01*
X281150Y257660D02*
X304650D01*
X311150Y264160D02*
X321945Y253365D01*
X304650Y257660D02*
X311150Y264160D01*
X120900Y146150D02*
X124600Y149850D01*
Y176100D01*
X281120Y264170D02*
X281140Y264150D01*
X262330Y264170D02*
X281120D01*
X262100Y264400D02*
X262330Y264170D01*
X281140Y264150D02*
X281150Y264160D01*
X120900Y146150D02*
X123040D01*
X103000Y207100D02*
X199600D01*
X101000Y210000D02*
X103000Y208000D01*
Y207100D02*
Y208000D01*
X278340Y283660D02*
X281150D01*
X276170Y285830D02*
X278340Y283660D01*
X272170Y285830D02*
X276170D01*
X357985Y175415D02*
Y233835D01*
Y175415D02*
X370840Y162560D01*
X347160Y244660D02*
X357985Y233835D01*
X367030Y270695D02*
Y290830D01*
X358320Y261985D02*
X367030Y270695D01*
X351680Y261985D02*
X358320D01*
X348992Y255495D02*
X372868D01*
X377190Y251173D01*
X381310Y200000D02*
X383240Y201930D01*
X346827Y257660D02*
X348992Y255495D01*
X341150Y257660D02*
X346827D01*
X349505Y264160D02*
X351680Y261985D01*
X341150Y264160D02*
X349505D01*
X366000Y200000D02*
X381310D01*
X377190Y243000D02*
Y251173D01*
X321945Y253365D02*
X324150Y251160D01*
X286020Y251150D02*
X290000Y247170D01*
Y176090D02*
Y247170D01*
Y176090D02*
X298450Y167640D01*
X341150Y270660D02*
X354340D01*
X355000Y270000D01*
X341150Y244660D02*
X347160D01*
X324150Y251160D02*
X341150D01*
X263190Y277160D02*
X281150D01*
X300990Y226060D02*
X301880D01*
X315930Y207010D02*
Y212010D01*
X301880Y226060D02*
X315930Y212010D01*
X262070Y244660D02*
X281150D01*
X283210Y251150D02*
X286020D01*
X266700Y164070D02*
X266940Y163830D01*
X280670D01*
X341150Y277160D02*
X347974D01*
X352754Y281940D01*
X353060D01*
X377190Y237970D02*
Y243000D01*
X369570Y293370D02*
X377190D01*
X367030Y290830D02*
X369570Y293370D01*
X370840Y162560D02*
X383240D01*
X298450Y167640D02*
X315930D01*
X281150Y277160D02*
X286050D01*
X300990Y292100D01*
D39*
X123250Y94500D02*
D03*
Y145500D02*
D03*
X72750Y120000D02*
D03*
X189230Y28140D02*
D03*
Y53140D02*
D03*
D40*
X370600Y52400D02*
D03*
X319800D02*
D03*
D41*
X140010Y276860D02*
D03*
D42*
X80010D02*
D03*
D43*
X265620Y196500D02*
D03*
Y205500D02*
D03*
X256600Y214500D02*
D03*
X247600D02*
D03*
X238600D02*
D03*
X265620Y214500D02*
D03*
Y187500D02*
D03*
X238600Y205500D02*
D03*
X247600D02*
D03*
X256600D02*
D03*
X229600D02*
D03*
X238600Y196500D02*
D03*
X247600D02*
D03*
X256600D02*
D03*
X229600D02*
D03*
X238600Y187500D02*
D03*
X247600D02*
D03*
X256600D02*
D03*
X229600D02*
D03*
Y214500D02*
D03*
X378000Y270000D02*
D03*
X34700Y209300D02*
D03*
X124600Y176100D02*
D03*
X262100Y264400D02*
D03*
X199600Y207100D02*
D03*
X311540Y253365D02*
D03*
X301135Y253175D02*
D03*
X310905Y264478D02*
D03*
X300500Y264287D02*
D03*
X321945Y253365D02*
D03*
X300500Y275400D02*
D03*
X321310Y275590D02*
D03*
X366000Y200000D02*
D03*
X272170Y285830D02*
D03*
X355000Y270000D02*
D03*
X378000Y243000D02*
D03*
X405000D02*
D03*
X396000D02*
D03*
X387000D02*
D03*
X378000Y252000D02*
D03*
X405000D02*
D03*
X396000D02*
D03*
X387000D02*
D03*
X378000Y261000D02*
D03*
X405000D02*
D03*
X396000D02*
D03*
X387000D02*
D03*
X414020Y243000D02*
D03*
Y270000D02*
D03*
X387000Y270000D02*
D03*
X396000D02*
D03*
X405000D02*
D03*
X414020Y261000D02*
D03*
Y252000D02*
D03*
X310905Y275590D02*
D03*
X321310Y264478D02*
D03*
X300990Y226060D02*
D03*
X262070Y244660D02*
D03*
X280670Y163830D02*
D03*
X353060Y281940D02*
D03*
X341630Y223520D02*
D03*
M02*
